<mxfile host="app.diagrams.net" modified="2023-12-06T09:46:56.219Z" agent="Mozilla/5.0 (Windows NT 10.0; Win64; x64) AppleWebKit/537.36 (KHTML, like Gecko) Chrome/119.0.0.0 Safari/537.36" etag="wgZuV-KllboGFjXFIr2I" version="22.1.5" type="github">
  <diagram name="Page-1" id="bD0zprL5Mv5zHVPfUihY">
    <mxGraphModel dx="1050" dy="565" grid="1" gridSize="10" guides="1" tooltips="1" connect="1" arrows="1" fold="1" page="1" pageScale="1" pageWidth="850" pageHeight="1100" math="0" shadow="0">
      <root>
        <mxCell id="0" />
        <mxCell id="1" parent="0" />
        <mxCell id="0ehenOneI7_3jCYHoJ6q-1" value="" style="edgeStyle=orthogonalEdgeStyle;rounded=0;orthogonalLoop=1;jettySize=auto;html=1;" edge="1" parent="1" source="0ehenOneI7_3jCYHoJ6q-2" target="0ehenOneI7_3jCYHoJ6q-4">
          <mxGeometry relative="1" as="geometry" />
        </mxCell>
        <mxCell id="0ehenOneI7_3jCYHoJ6q-2" value="Exercice 2.2" style="rounded=1;whiteSpace=wrap;html=1;" vertex="1" parent="1">
          <mxGeometry x="120" y="40" width="120" height="40" as="geometry" />
        </mxCell>
        <mxCell id="0ehenOneI7_3jCYHoJ6q-3" value="" style="edgeStyle=orthogonalEdgeStyle;rounded=0;orthogonalLoop=1;jettySize=auto;html=1;" edge="1" parent="1" source="0ehenOneI7_3jCYHoJ6q-4" target="0ehenOneI7_3jCYHoJ6q-6">
          <mxGeometry relative="1" as="geometry" />
        </mxCell>
        <mxCell id="0ehenOneI7_3jCYHoJ6q-4" value="configurer pin 13 comme sortie, pin 2 comme entrée" style="rounded=0;whiteSpace=wrap;html=1;" vertex="1" parent="1">
          <mxGeometry x="120" y="120" width="120" height="40" as="geometry" />
        </mxCell>
        <mxCell id="0ehenOneI7_3jCYHoJ6q-5" value="" style="edgeStyle=orthogonalEdgeStyle;rounded=0;orthogonalLoop=1;jettySize=auto;html=1;" edge="1" parent="1" source="0ehenOneI7_3jCYHoJ6q-6" target="0ehenOneI7_3jCYHoJ6q-9">
          <mxGeometry relative="1" as="geometry" />
        </mxCell>
        <mxCell id="0ehenOneI7_3jCYHoJ6q-6" value="lire &amp;amp; sauvegarder l&#39;état de la broche 2" style="rounded=0;whiteSpace=wrap;html=1;" vertex="1" parent="1">
          <mxGeometry x="120" y="200" width="120" height="40" as="geometry" />
        </mxCell>
        <mxCell id="0ehenOneI7_3jCYHoJ6q-7" style="edgeStyle=orthogonalEdgeStyle;rounded=0;orthogonalLoop=1;jettySize=auto;html=1;exitX=0.5;exitY=1;exitDx=0;exitDy=0;" edge="1" parent="1" source="0ehenOneI7_3jCYHoJ6q-9">
          <mxGeometry relative="1" as="geometry">
            <mxPoint x="180" y="170" as="targetPoint" />
            <Array as="points">
              <mxPoint x="180" y="760" />
              <mxPoint x="31" y="760" />
              <mxPoint x="31" y="170" />
            </Array>
          </mxGeometry>
        </mxCell>
        <mxCell id="0ehenOneI7_3jCYHoJ6q-8" style="edgeStyle=orthogonalEdgeStyle;rounded=0;orthogonalLoop=1;jettySize=auto;html=1;exitX=1;exitY=0.5;exitDx=0;exitDy=0;entryX=0.5;entryY=0;entryDx=0;entryDy=0;" edge="1" parent="1" source="0ehenOneI7_3jCYHoJ6q-9" target="0ehenOneI7_3jCYHoJ6q-12">
          <mxGeometry relative="1" as="geometry">
            <mxPoint x="360" y="320" as="targetPoint" />
            <Array as="points">
              <mxPoint x="290" y="320" />
              <mxPoint x="290" y="321" />
              <mxPoint x="360" y="321" />
            </Array>
          </mxGeometry>
        </mxCell>
        <mxCell id="0ehenOneI7_3jCYHoJ6q-9" value="pin 2 = true" style="rhombus;whiteSpace=wrap;html=1;" vertex="1" parent="1">
          <mxGeometry x="140" y="280" width="80" height="80" as="geometry" />
        </mxCell>
        <mxCell id="0ehenOneI7_3jCYHoJ6q-10" value="" style="edgeStyle=orthogonalEdgeStyle;rounded=0;orthogonalLoop=1;jettySize=auto;html=1;" edge="1" parent="1" source="0ehenOneI7_3jCYHoJ6q-12" target="0ehenOneI7_3jCYHoJ6q-18">
          <mxGeometry relative="1" as="geometry" />
        </mxCell>
        <mxCell id="0ehenOneI7_3jCYHoJ6q-11" style="edgeStyle=orthogonalEdgeStyle;rounded=0;orthogonalLoop=1;jettySize=auto;html=1;exitX=1;exitY=0.5;exitDx=0;exitDy=0;entryX=0.573;entryY=-0.115;entryDx=0;entryDy=0;entryPerimeter=0;" edge="1" parent="1" source="0ehenOneI7_3jCYHoJ6q-12" target="0ehenOneI7_3jCYHoJ6q-20">
          <mxGeometry relative="1" as="geometry">
            <mxPoint x="530" y="400" as="targetPoint" />
            <Array as="points">
              <mxPoint x="470" y="400" />
              <mxPoint x="470" y="401" />
              <mxPoint x="519" y="401" />
            </Array>
          </mxGeometry>
        </mxCell>
        <mxCell id="0ehenOneI7_3jCYHoJ6q-12" value="LED = high" style="rhombus;whiteSpace=wrap;html=1;" vertex="1" parent="1">
          <mxGeometry x="320" y="360" width="80" height="80" as="geometry" />
        </mxCell>
        <mxCell id="0ehenOneI7_3jCYHoJ6q-13" value="non" style="text;html=1;strokeColor=none;fillColor=none;align=center;verticalAlign=middle;whiteSpace=wrap;rounded=0;" vertex="1" parent="1">
          <mxGeometry x="110" y="340" width="60" height="30" as="geometry" />
        </mxCell>
        <mxCell id="0ehenOneI7_3jCYHoJ6q-14" value="oui" style="text;html=1;strokeColor=none;fillColor=none;align=center;verticalAlign=middle;whiteSpace=wrap;rounded=0;" vertex="1" parent="1">
          <mxGeometry x="210" y="280" width="60" height="30" as="geometry" />
        </mxCell>
        <mxCell id="0ehenOneI7_3jCYHoJ6q-15" value="oui" style="text;html=1;strokeColor=none;fillColor=none;align=center;verticalAlign=middle;whiteSpace=wrap;rounded=0;" vertex="1" parent="1">
          <mxGeometry x="380" y="350" width="60" height="30" as="geometry" />
        </mxCell>
        <mxCell id="0ehenOneI7_3jCYHoJ6q-16" value="non" style="text;html=1;strokeColor=none;fillColor=none;align=center;verticalAlign=middle;whiteSpace=wrap;rounded=0;" vertex="1" parent="1">
          <mxGeometry x="280" y="410" width="60" height="30" as="geometry" />
        </mxCell>
        <mxCell id="0ehenOneI7_3jCYHoJ6q-17" value="" style="edgeStyle=orthogonalEdgeStyle;rounded=0;orthogonalLoop=1;jettySize=auto;html=1;" edge="1" parent="1" source="0ehenOneI7_3jCYHoJ6q-18" target="0ehenOneI7_3jCYHoJ6q-22">
          <mxGeometry relative="1" as="geometry" />
        </mxCell>
        <mxCell id="0ehenOneI7_3jCYHoJ6q-18" value="pin 13 = high" style="shape=parallelogram;perimeter=parallelogramPerimeter;whiteSpace=wrap;html=1;fixedSize=1;" vertex="1" parent="1">
          <mxGeometry x="300" y="480" width="120" height="40" as="geometry" />
        </mxCell>
        <mxCell id="0ehenOneI7_3jCYHoJ6q-19" value="" style="edgeStyle=orthogonalEdgeStyle;rounded=0;orthogonalLoop=1;jettySize=auto;html=1;" edge="1" parent="1" source="0ehenOneI7_3jCYHoJ6q-20" target="0ehenOneI7_3jCYHoJ6q-24">
          <mxGeometry relative="1" as="geometry" />
        </mxCell>
        <mxCell id="0ehenOneI7_3jCYHoJ6q-20" value="pin 13 = low" style="shape=parallelogram;perimeter=parallelogramPerimeter;whiteSpace=wrap;html=1;fixedSize=1;" vertex="1" parent="1">
          <mxGeometry x="450" y="480" width="120" height="40" as="geometry" />
        </mxCell>
        <mxCell id="0ehenOneI7_3jCYHoJ6q-21" value="" style="edgeStyle=orthogonalEdgeStyle;rounded=0;orthogonalLoop=1;jettySize=auto;html=1;" edge="1" parent="1" source="0ehenOneI7_3jCYHoJ6q-22" target="0ehenOneI7_3jCYHoJ6q-26">
          <mxGeometry relative="1" as="geometry" />
        </mxCell>
        <mxCell id="0ehenOneI7_3jCYHoJ6q-22" value="LED = high" style="rounded=0;whiteSpace=wrap;html=1;" vertex="1" parent="1">
          <mxGeometry x="300" y="560" width="120" height="40" as="geometry" />
        </mxCell>
        <mxCell id="0ehenOneI7_3jCYHoJ6q-23" style="edgeStyle=orthogonalEdgeStyle;rounded=0;orthogonalLoop=1;jettySize=auto;html=1;exitX=0.5;exitY=1;exitDx=0;exitDy=0;" edge="1" parent="1" source="0ehenOneI7_3jCYHoJ6q-24">
          <mxGeometry relative="1" as="geometry">
            <mxPoint x="360" y="620" as="targetPoint" />
            <Array as="points">
              <mxPoint x="510" y="620" />
            </Array>
          </mxGeometry>
        </mxCell>
        <mxCell id="0ehenOneI7_3jCYHoJ6q-24" value="LED = low" style="rounded=0;whiteSpace=wrap;html=1;" vertex="1" parent="1">
          <mxGeometry x="450" y="560" width="120" height="40" as="geometry" />
        </mxCell>
        <mxCell id="0ehenOneI7_3jCYHoJ6q-25" style="edgeStyle=orthogonalEdgeStyle;rounded=0;orthogonalLoop=1;jettySize=auto;html=1;exitX=0;exitY=0.5;exitDx=0;exitDy=0;" edge="1" parent="1" source="0ehenOneI7_3jCYHoJ6q-26">
          <mxGeometry relative="1" as="geometry">
            <mxPoint x="180" y="760" as="targetPoint" />
          </mxGeometry>
        </mxCell>
        <mxCell id="0ehenOneI7_3jCYHoJ6q-26" value="pause: 200ms&amp;nbsp;" style="rounded=0;whiteSpace=wrap;html=1;dashed=1;" vertex="1" parent="1">
          <mxGeometry x="300" y="740" width="120" height="40" as="geometry" />
        </mxCell>
      </root>
    </mxGraphModel>
  </diagram>
</mxfile>
